<?xml version="1.0" encoding="UTF-8" standalone="no"?>
<!DOCTYPE svg PUBLIC "-//W3C//DTD SVG 1.1//EN" "http://www.w3.org/Graphics/SVG/1.1/DTD/svg11.dtd">
<svg width="100%" height="100%" viewBox="0 0 852 120" version="1.1" xmlns="http://www.w3.org/2000/svg" xmlns:xlink="http://www.w3.org/1999/xlink" xml:space="preserve" xmlns:serif="http://www.serif.com/" style="fill-rule:evenodd;clip-rule:evenodd;stroke-linejoin:round;stroke-miterlimit:2;">
    <g transform="matrix(1,0,0,1,-69.478,-90.1518)">
        <g id="icona" transform="matrix(1,0,0,1,30.5546,14.2857)">
            <g transform="matrix(0.35123,0,0,0.556928,-59.947,-365.528)">
                <path d="M1805.18,792.552L1936.23,1007.48L1805.18,1007.48L1805.18,792.552Z" style="fill:rgb(5,201,241);"/>
            </g>
            <g transform="matrix(0.343496,0,0,0.343496,-45.6555,-150.501)">
                <path d="M1762.7,659.01L1749.81,665.242L1733.21,674.36L1715.3,684.988L1698.68,696.314L1684.98,706.637L1670.06,719.087L1663.78,724.775L1657.44,730.794L1649.49,738.862L1642.04,747.214L1637.51,752.373L1631.46,760.211L1625.86,767.963L1620.55,776.309L1611.8,791.684L1604.44,806.971L1598.93,821.291L1596.76,828.23L1595.05,835.057L1593.13,841.772L1591.57,848.823L1589.92,858.401L1588.86,868.641C1586.9,918.468 1593.34,965.878 1621.29,1007.48L1762.7,1007.48L1762.7,659.01Z" style="fill:rgb(5,201,241);"/>
            </g>
        </g>
        <g transform="matrix(1,0,0,1,568.82,41.8445)">
            <path d="M161.577,83.004C169.744,83.004 176.785,84.712 182.702,88.129C188.619,91.545 193.181,96.42 196.389,102.754C199.598,109.087 201.202,116.67 201.202,125.504C201.202,134.337 199.598,141.92 196.389,148.254C193.181,154.587 188.619,159.462 182.702,162.879C176.785,166.295 169.744,168.004 161.577,168.004C153.41,168.004 146.348,166.295 140.389,162.879C134.431,159.462 129.848,154.587 126.639,148.254C123.431,141.92 121.827,134.337 121.827,125.504C121.827,116.67 123.431,109.087 126.639,102.754C129.848,96.42 134.431,91.545 140.389,88.129C146.348,84.712 153.41,83.004 161.577,83.004ZM161.577,97.129C156.994,97.129 153.056,98.212 149.764,100.379C146.473,102.545 143.973,105.754 142.264,110.004C140.556,114.254 139.702,119.42 139.702,125.504C139.702,131.587 140.556,136.754 142.264,141.004C143.973,145.254 146.473,148.462 149.764,150.629C153.056,152.795 156.994,153.879 161.577,153.879C166.16,153.879 170.077,152.795 173.327,150.629C176.577,148.462 179.056,145.254 180.764,141.004C182.473,136.754 183.327,131.587 183.327,125.504C183.327,119.42 182.473,114.254 180.764,110.004C179.056,105.754 176.577,102.545 173.327,100.379C170.077,98.212 166.16,97.129 161.577,97.129Z" style="fill:white;fill-rule:nonzero;"/>
            <path d="M216.452,166.754L216.452,104.254L231.827,104.254L232.827,123.004L230.702,121.004C231.702,116.92 233.285,113.566 235.452,110.941C237.619,108.316 240.264,106.337 243.389,105.004C246.514,103.67 249.952,103.004 253.702,103.004C258.035,103.004 261.889,103.837 265.264,105.504C268.639,107.17 271.306,109.691 273.264,113.066C275.223,116.441 276.202,120.67 276.202,125.754L276.202,166.754L259.077,166.754L259.077,130.629C259.077,125.295 258.035,121.608 255.952,119.566C253.869,117.525 251.16,116.504 247.827,116.504C245.494,116.504 243.223,117.066 241.014,118.191C238.806,119.316 237.014,121.129 235.639,123.629C234.264,126.129 233.577,129.462 233.577,133.629L233.577,166.754L216.452,166.754Z" style="fill:white;fill-rule:nonzero;"/>
            <path d="M322.827,168.004C316.244,168.004 310.514,166.712 305.639,164.129C300.764,161.545 296.994,157.837 294.327,153.004C291.66,148.17 290.327,142.337 290.327,135.504C290.327,128.67 291.66,122.837 294.327,118.004C296.994,113.17 300.723,109.462 305.514,106.879C310.306,104.295 315.785,103.004 321.952,103.004C328.285,103.004 333.66,104.275 338.077,106.816C342.494,109.358 345.869,112.816 348.202,117.191C350.535,121.566 351.702,126.545 351.702,132.129C351.702,133.795 351.66,135.379 351.577,136.879C351.494,138.379 351.369,139.712 351.202,140.879L301.327,140.879L301.327,129.004L343.702,129.004L335.452,132.004C335.452,126.754 334.264,122.712 331.889,119.879C329.514,117.045 326.16,115.629 321.827,115.629C318.66,115.629 315.931,116.379 313.639,117.879C311.348,119.379 309.619,121.608 308.452,124.566C307.285,127.525 306.702,131.254 306.702,135.754C306.702,140.17 307.348,143.816 308.639,146.691C309.931,149.566 311.764,151.712 314.139,153.129C316.514,154.545 319.369,155.254 322.702,155.254C326.369,155.254 329.327,154.545 331.577,153.129C333.827,151.712 335.577,149.754 336.827,147.254L350.452,152.504C349.119,155.754 347.098,158.545 344.389,160.879C341.681,163.212 338.473,164.983 334.764,166.191C331.056,167.4 327.077,168.004 322.827,168.004Z" style="fill:white;fill-rule:nonzero;"/>
        </g>
        <g transform="matrix(1,0,0,1,-48.9738,41.8445)">
            <path d="M156.077,83.004C163.577,83.004 170.16,84.295 175.827,86.879C181.494,89.462 186.327,93.295 190.327,98.379L180.702,109.504C177.285,105.17 173.556,101.983 169.514,99.941C165.473,97.9 160.785,96.879 155.452,96.879C151.952,96.879 149.056,97.337 146.764,98.254C144.473,99.17 142.806,100.379 141.764,101.879C140.723,103.379 140.202,105.045 140.202,106.879C140.202,109.129 141.077,111.025 142.827,112.566C144.577,114.108 147.577,115.379 151.827,116.379L167.202,119.879C175.369,121.712 181.223,124.441 184.764,128.066C188.306,131.691 190.077,136.379 190.077,142.129C190.077,147.545 188.66,152.191 185.827,156.066C182.994,159.941 179.035,162.9 173.952,164.941C168.869,166.983 163.035,168.004 156.452,168.004C150.702,168.004 145.431,167.316 140.639,165.941C135.848,164.566 131.577,162.67 127.827,160.254C124.077,157.837 120.952,155.045 118.452,151.879L128.202,140.254C130.119,142.92 132.494,145.295 135.327,147.379C138.16,149.462 141.389,151.108 145.014,152.316C148.639,153.525 152.452,154.129 156.452,154.129C159.869,154.129 162.764,153.733 165.139,152.941C167.514,152.15 169.306,151.025 170.514,149.566C171.723,148.108 172.327,146.337 172.327,144.254C172.327,142.087 171.598,140.233 170.139,138.691C168.681,137.15 165.994,135.962 162.077,135.129L145.327,131.379C140.494,130.212 136.348,128.691 132.889,126.816C129.431,124.941 126.806,122.525 125.014,119.566C123.223,116.608 122.327,113.087 122.327,109.004C122.327,104.087 123.66,99.67 126.327,95.754C128.994,91.837 132.848,88.733 137.889,86.441C142.931,84.15 148.994,83.004 156.077,83.004Z" style="fill:white;fill-rule:nonzero;"/>
            <path d="M239.577,126.879C239.577,123.295 238.556,120.504 236.514,118.504C234.473,116.504 231.785,115.504 228.452,115.504C225.369,115.504 222.66,116.295 220.327,117.879C217.994,119.462 216.285,122.087 215.202,125.754L200.577,121.254C201.994,115.754 205.098,111.337 209.889,108.004C214.681,104.67 221.119,103.004 229.202,103.004C234.702,103.004 239.494,103.858 243.577,105.566C247.66,107.275 250.848,109.837 253.139,113.254C255.431,116.67 256.577,120.962 256.577,126.129L256.577,151.504C256.577,154.67 258.077,156.254 261.077,156.254C262.494,156.254 263.827,156.045 265.077,155.629L264.077,166.254C261.91,167.337 259.202,167.879 255.952,167.879C253.035,167.879 250.41,167.379 248.077,166.379C245.744,165.379 243.91,163.858 242.577,161.816C241.244,159.775 240.577,157.212 240.577,154.129L240.577,153.629L243.577,153.129C243.077,156.295 241.702,158.983 239.452,161.191C237.202,163.4 234.473,165.087 231.264,166.254C228.056,167.42 224.744,168.004 221.327,168.004C217.077,168.004 213.41,167.358 210.327,166.066C207.244,164.775 204.869,162.879 203.202,160.379C201.535,157.879 200.702,154.795 200.702,151.129C200.702,146.462 202.202,142.65 205.202,139.691C208.202,136.733 212.494,134.712 218.077,133.629L241.577,128.879L241.452,139.504L226.452,142.504C223.619,143.087 221.473,143.858 220.014,144.816C218.556,145.775 217.827,147.337 217.827,149.504C217.827,151.587 218.598,153.17 220.139,154.254C221.681,155.337 223.535,155.879 225.702,155.879C227.452,155.879 229.16,155.67 230.827,155.254C232.494,154.837 233.994,154.17 235.327,153.254C236.66,152.337 237.702,151.087 238.452,149.504C239.202,147.92 239.577,146.004 239.577,143.754L239.577,126.879Z" style="fill:white;fill-rule:nonzero;"/>
            <path d="M284.327,95.254C280.744,95.254 278.077,94.483 276.327,92.941C274.577,91.4 273.702,89.129 273.702,86.129C273.702,83.045 274.577,80.733 276.327,79.191C278.077,77.65 280.744,76.879 284.327,76.879C287.91,76.879 290.577,77.65 292.327,79.191C294.077,80.733 294.952,83.045 294.952,86.129C294.952,89.129 294.077,91.4 292.327,92.941C290.577,94.483 287.91,95.254 284.327,95.254ZM292.827,104.254L292.827,166.754L275.702,166.754L275.702,104.254L292.827,104.254Z" style="fill:white;fill-rule:nonzero;"/>
            <path d="M327.827,76.879L327.827,147.504C327.827,150.42 328.327,152.462 329.327,153.629C330.327,154.795 331.994,155.379 334.327,155.379C335.744,155.379 336.91,155.275 337.827,155.066C338.744,154.858 339.91,154.545 341.327,154.129L339.827,165.379C338.41,166.212 336.639,166.858 334.514,167.316C332.389,167.775 330.285,168.004 328.202,168.004C322.119,168.004 317.681,166.525 314.889,163.566C312.098,160.608 310.702,155.879 310.702,149.379L310.702,76.879L327.827,76.879Z" style="fill:white;fill-rule:nonzero;"/>
            <path d="M379.327,103.004C385.66,103.004 391.223,104.295 396.014,106.879C400.806,109.462 404.556,113.17 407.264,118.004C409.973,122.837 411.327,128.67 411.327,135.504C411.327,142.254 409.973,148.066 407.264,152.941C404.556,157.816 400.806,161.545 396.014,164.129C391.223,166.712 385.66,168.004 379.327,168.004C373.077,168.004 367.535,166.712 362.702,164.129C357.869,161.545 354.098,157.816 351.389,152.941C348.681,148.066 347.327,142.254 347.327,135.504C347.327,128.67 348.681,122.837 351.389,118.004C354.098,113.17 357.869,109.462 362.702,106.879C367.535,104.295 373.077,103.004 379.327,103.004ZM379.327,115.754C376.16,115.754 373.473,116.483 371.264,117.941C369.056,119.4 367.369,121.587 366.202,124.504C365.035,127.42 364.452,131.087 364.452,135.504C364.452,139.92 365.035,143.587 366.202,146.504C367.369,149.42 369.056,151.608 371.264,153.066C373.473,154.525 376.16,155.254 379.327,155.254C382.41,155.254 385.056,154.525 387.264,153.066C389.473,151.608 391.16,149.42 392.327,146.504C393.494,143.587 394.077,139.92 394.077,135.504C394.077,131.087 393.494,127.42 392.327,124.504C391.16,121.587 389.473,119.4 387.264,117.941C385.056,116.483 382.41,115.754 379.327,115.754Z" style="fill:white;fill-rule:nonzero;"/>
            <path d="M425.702,166.754L425.702,104.254L440.577,104.254L441.702,116.504C443.369,112.17 445.806,108.837 449.014,106.504C452.223,104.17 456.244,103.004 461.077,103.004C462.494,103.004 463.785,103.129 464.952,103.379C466.119,103.629 467.077,103.962 467.827,104.379L465.827,118.754C464.994,118.42 463.973,118.17 462.764,118.004C461.556,117.837 459.994,117.754 458.077,117.754C455.577,117.754 453.16,118.358 450.827,119.566C448.494,120.775 446.577,122.608 445.077,125.066C443.577,127.525 442.827,130.629 442.827,134.379L442.827,166.754L425.702,166.754Z" style="fill:white;fill-rule:nonzero;"/>
            <path d="M501.827,168.004C495.494,168.004 489.723,166.879 484.514,164.629C479.306,162.379 475.077,159.212 471.827,155.129L481.702,145.129C483.702,148.129 486.369,150.587 489.702,152.504C493.035,154.42 496.994,155.379 501.577,155.379C504.827,155.379 507.431,154.9 509.389,153.941C511.348,152.983 512.327,151.462 512.327,149.379C512.327,148.045 511.869,146.9 510.952,145.941C510.035,144.983 508.202,144.212 505.452,143.629L494.452,141.379C487.202,139.879 482.056,137.608 479.014,134.566C475.973,131.525 474.452,127.587 474.452,122.754C474.452,119.337 475.473,116.129 477.514,113.129C479.556,110.129 482.619,107.691 486.702,105.816C490.785,103.941 495.869,103.004 501.952,103.004C508.202,103.004 513.639,103.983 518.264,105.941C522.889,107.9 526.535,110.795 529.202,114.629L518.952,124.629C517.119,121.712 514.723,119.483 511.764,117.941C508.806,116.4 505.702,115.629 502.452,115.629C500.119,115.629 498.119,115.879 496.452,116.379C494.785,116.879 493.535,117.566 492.702,118.441C491.869,119.316 491.452,120.42 491.452,121.754C491.452,123.087 492.035,124.233 493.202,125.191C494.369,126.15 496.494,126.962 499.577,127.629L512.327,130.254C518.494,131.504 522.91,133.608 525.577,136.566C528.244,139.525 529.577,143.087 529.577,147.254C529.577,151.254 528.514,154.816 526.389,157.941C524.264,161.066 521.139,163.525 517.014,165.316C512.889,167.108 507.827,168.004 501.827,168.004Z" style="fill:white;fill-rule:nonzero;"/>
        </g>
    </g>
</svg>
